<mxfile host="Electron" modified="2023-08-01T20:43:24.719Z" agent="Mozilla/5.0 (Windows NT 10.0; Win64; x64) AppleWebKit/537.36 (KHTML, like Gecko) draw.io/21.5.1 Chrome/112.0.5615.204 Electron/24.6.0 Safari/537.36" etag="3zzrO9Yr8HHjwRQWLoji" version="21.5.1" type="device">
  <diagram name="Page-1" id="8kIWOGsX5G2s9qzZLplj">
    <mxGraphModel dx="3590" dy="1853" grid="1" gridSize="10" guides="1" tooltips="1" connect="1" arrows="1" fold="1" page="0" pageScale="1" pageWidth="850" pageHeight="1100" math="0" shadow="0">
      <root>
        <mxCell id="0" />
        <mxCell id="1" parent="0" />
        <mxCell id="rNg2EFlrI3MOSEz9Saxy-4" value="" style="rounded=0;whiteSpace=wrap;html=1;strokeColor=#FFFFFF;strokeWidth=1;fontStyle=0" parent="1" vertex="1">
          <mxGeometry x="-460" y="-20" width="1600" height="760" as="geometry" />
        </mxCell>
        <mxCell id="12" value="Legend" style="swimlane;whiteSpace=wrap;html=1;gradientColor=none;dashed=1;dashPattern=1 4;fontStyle=0" parent="1" vertex="1">
          <mxGeometry x="-440" y="620" width="160" height="100" as="geometry" />
        </mxCell>
        <mxCell id="7" value="Inheritance" style="text;html=1;strokeColor=none;fillColor=none;align=left;verticalAlign=middle;whiteSpace=wrap;rounded=0;fontStyle=0" parent="12" vertex="1">
          <mxGeometry x="70" y="30" width="80" height="20" as="geometry" />
        </mxCell>
        <mxCell id="4" value="" style="endArrow=block;html=1;endFill=0;strokeWidth=2;fontStyle=0" parent="12" edge="1">
          <mxGeometry width="50" height="50" relative="1" as="geometry">
            <mxPoint x="60" y="40" as="sourcePoint" />
            <mxPoint x="10" y="40" as="targetPoint" />
          </mxGeometry>
        </mxCell>
        <mxCell id="8" value="Association" style="text;html=1;strokeColor=none;fillColor=none;align=left;verticalAlign=middle;whiteSpace=wrap;rounded=0;fontStyle=0" parent="12" vertex="1">
          <mxGeometry x="70" y="50" width="80" height="20" as="geometry" />
        </mxCell>
        <mxCell id="4rP3tmyDoXCIiBvURkH--39" value="" style="endArrow=open;html=1;endFill=0;dashed=1;fontStyle=0" parent="12" edge="1">
          <mxGeometry width="50" height="50" relative="1" as="geometry">
            <mxPoint x="60" y="80" as="sourcePoint" />
            <mxPoint x="10" y="80" as="targetPoint" />
          </mxGeometry>
        </mxCell>
        <mxCell id="4rP3tmyDoXCIiBvURkH--40" value="Dependency" style="text;html=1;strokeColor=none;fillColor=none;align=left;verticalAlign=middle;whiteSpace=wrap;rounded=0;fontStyle=0" parent="12" vertex="1">
          <mxGeometry x="70" y="70" width="80" height="20" as="geometry" />
        </mxCell>
        <mxCell id="4rP3tmyDoXCIiBvURkH--67" value="" style="endArrow=none;html=1;endFill=0;fontStyle=0" parent="12" edge="1">
          <mxGeometry width="50" height="50" relative="1" as="geometry">
            <mxPoint x="60" y="60" as="sourcePoint" />
            <mxPoint x="10" y="60.25" as="targetPoint" />
          </mxGeometry>
        </mxCell>
        <mxCell id="4rP3tmyDoXCIiBvURkH--68" value="*" style="edgeLabel;html=1;align=center;verticalAlign=middle;resizable=0;points=[];fontStyle=0" parent="4rP3tmyDoXCIiBvURkH--67" vertex="1" connectable="0">
          <mxGeometry x="0.6272" relative="1" as="geometry">
            <mxPoint as="offset" />
          </mxGeometry>
        </mxCell>
        <mxCell id="4rP3tmyDoXCIiBvURkH--69" value="*&lt;br&gt;" style="edgeLabel;html=1;align=center;verticalAlign=middle;resizable=0;points=[];fontStyle=0" parent="4rP3tmyDoXCIiBvURkH--67" vertex="1" connectable="0">
          <mxGeometry x="-0.7057" relative="1" as="geometry">
            <mxPoint x="-3" as="offset" />
          </mxGeometry>
        </mxCell>
        <mxCell id="bx1p0kPIpxOsbpVViYsy-33" value="" style="endArrow=none;html=1;endFill=0;fontStyle=0" parent="1" source="_WhWga9PzR_UyUv0E_fq-114" target="_WhWga9PzR_UyUv0E_fq-112" edge="1">
          <mxGeometry width="50" height="50" relative="1" as="geometry">
            <mxPoint x="932" y="268.72" as="sourcePoint" />
            <mxPoint x="902" y="268.72" as="targetPoint" />
          </mxGeometry>
        </mxCell>
        <mxCell id="4rP3tmyDoXCIiBvURkH--42" value="1" style="edgeLabel;html=1;align=center;verticalAlign=middle;resizable=0;points=[];fontStyle=0" parent="bx1p0kPIpxOsbpVViYsy-33" vertex="1" connectable="0">
          <mxGeometry x="0.6272" relative="1" as="geometry">
            <mxPoint as="offset" />
          </mxGeometry>
        </mxCell>
        <mxCell id="4rP3tmyDoXCIiBvURkH--44" value="1" style="edgeLabel;html=1;align=center;verticalAlign=middle;resizable=0;points=[];fontStyle=0" parent="bx1p0kPIpxOsbpVViYsy-33" vertex="1" connectable="0">
          <mxGeometry x="-0.7057" relative="1" as="geometry">
            <mxPoint as="offset" />
          </mxGeometry>
        </mxCell>
        <mxCell id="bx1p0kPIpxOsbpVViYsy-34" value="" style="endArrow=block;html=1;endFill=0;strokeWidth=2;fontStyle=0" parent="1" source="_WhWga9PzR_UyUv0E_fq-116" target="_WhWga9PzR_UyUv0E_fq-115" edge="1">
          <mxGeometry width="50" height="50" relative="1" as="geometry">
            <mxPoint x="780" y="-73.78" as="sourcePoint" />
            <mxPoint x="750" y="-73.78" as="targetPoint" />
          </mxGeometry>
        </mxCell>
        <mxCell id="bx1p0kPIpxOsbpVViYsy-35" value="" style="endArrow=block;html=1;endFill=0;strokeWidth=2;fontStyle=0" parent="1" source="_WhWga9PzR_UyUv0E_fq-118" target="_WhWga9PzR_UyUv0E_fq-115" edge="1">
          <mxGeometry width="50" height="50" relative="1" as="geometry">
            <mxPoint x="-30" y="381.22" as="sourcePoint" />
            <mxPoint x="-110" y="375.22" as="targetPoint" />
          </mxGeometry>
        </mxCell>
        <mxCell id="bx1p0kPIpxOsbpVViYsy-36" value="" style="endArrow=block;html=1;endFill=0;strokeWidth=2;fontStyle=0" parent="1" source="_WhWga9PzR_UyUv0E_fq-101" target="_WhWga9PzR_UyUv0E_fq-114" edge="1">
          <mxGeometry width="50" height="50" relative="1" as="geometry">
            <mxPoint x="917" y="-62.78" as="sourcePoint" />
            <mxPoint x="887" y="-62.78" as="targetPoint" />
          </mxGeometry>
        </mxCell>
        <mxCell id="bx1p0kPIpxOsbpVViYsy-37" value="" style="endArrow=block;html=1;endFill=0;strokeWidth=2;fontStyle=0" parent="1" source="_WhWga9PzR_UyUv0E_fq-102" target="_WhWga9PzR_UyUv0E_fq-114" edge="1">
          <mxGeometry width="50" height="50" relative="1" as="geometry">
            <mxPoint x="197" y="57.22" as="sourcePoint" />
            <mxPoint x="117" y="60.22" as="targetPoint" />
          </mxGeometry>
        </mxCell>
        <mxCell id="bx1p0kPIpxOsbpVViYsy-43" value="" style="endArrow=block;html=1;endFill=0;strokeWidth=2;fontStyle=0" parent="1" source="_WhWga9PzR_UyUv0E_fq-113" target="_WhWga9PzR_UyUv0E_fq-122" edge="1">
          <mxGeometry width="50" height="50" relative="1" as="geometry">
            <mxPoint x="330" y="67.22" as="sourcePoint" />
            <mxPoint x="250" y="49.22" as="targetPoint" />
          </mxGeometry>
        </mxCell>
        <mxCell id="bx1p0kPIpxOsbpVViYsy-44" value="" style="endArrow=block;html=1;endFill=0;strokeWidth=2;fontStyle=0" parent="1" source="_WhWga9PzR_UyUv0E_fq-119" target="_WhWga9PzR_UyUv0E_fq-122" edge="1">
          <mxGeometry width="50" height="50" relative="1" as="geometry">
            <mxPoint x="789" y="68.22" as="sourcePoint" />
            <mxPoint x="552" y="217.22000000000003" as="targetPoint" />
          </mxGeometry>
        </mxCell>
        <mxCell id="bx1p0kPIpxOsbpVViYsy-47" value="" style="endArrow=open;html=1;endFill=0;dashed=1;fontStyle=0" parent="1" source="_WhWga9PzR_UyUv0E_fq-122" target="_WhWga9PzR_UyUv0E_fq-121" edge="1">
          <mxGeometry width="50" height="50" relative="1" as="geometry">
            <mxPoint x="364" y="75.22" as="sourcePoint" />
            <mxPoint x="164" y="157.22" as="targetPoint" />
          </mxGeometry>
        </mxCell>
        <mxCell id="bx1p0kPIpxOsbpVViYsy-51" value="" style="endArrow=block;html=1;endFill=0;strokeWidth=2;fontStyle=0" parent="1" source="_WhWga9PzR_UyUv0E_fq-95" target="_WhWga9PzR_UyUv0E_fq-114" edge="1">
          <mxGeometry width="50" height="50" relative="1" as="geometry">
            <mxPoint x="165" y="158.22" as="sourcePoint" />
            <mxPoint x="107" y="169.22" as="targetPoint" />
          </mxGeometry>
        </mxCell>
        <mxCell id="Au0DEcnGLnKyeH4aQmwk-26" value="" style="endArrow=block;html=1;endFill=0;strokeWidth=2;fontStyle=0" parent="1" source="_WhWga9PzR_UyUv0E_fq-128" target="_WhWga9PzR_UyUv0E_fq-115" edge="1">
          <mxGeometry width="50" height="50" relative="1" as="geometry">
            <mxPoint y="28.22" as="sourcePoint" />
            <mxPoint x="-32" y="44.22" as="targetPoint" />
          </mxGeometry>
        </mxCell>
        <mxCell id="Au0DEcnGLnKyeH4aQmwk-31" value="" style="endArrow=block;html=1;endFill=0;strokeWidth=2;fontStyle=0" parent="1" source="_WhWga9PzR_UyUv0E_fq-123" target="_WhWga9PzR_UyUv0E_fq-122" edge="1">
          <mxGeometry width="50" height="50" relative="1" as="geometry">
            <mxPoint x="912" y="109.22" as="sourcePoint" />
            <mxPoint x="816" y="249.22000000000003" as="targetPoint" />
          </mxGeometry>
        </mxCell>
        <mxCell id="4rP3tmyDoXCIiBvURkH--19" value="" style="endArrow=block;html=1;endFill=0;strokeWidth=2;fontStyle=0" parent="1" source="_WhWga9PzR_UyUv0E_fq-109" target="_WhWga9PzR_UyUv0E_fq-114" edge="1">
          <mxGeometry width="50" height="50" relative="1" as="geometry">
            <mxPoint x="186" y="517.22" as="sourcePoint" />
            <mxPoint x="43" y="171.22" as="targetPoint" />
          </mxGeometry>
        </mxCell>
        <mxCell id="4rP3tmyDoXCIiBvURkH--21" value="" style="endArrow=block;html=1;endFill=0;strokeWidth=2;fontStyle=0" parent="1" source="_WhWga9PzR_UyUv0E_fq-126" target="_WhWga9PzR_UyUv0E_fq-122" edge="1">
          <mxGeometry width="50" height="50" relative="1" as="geometry">
            <mxPoint x="911" y="482.22" as="sourcePoint" />
            <mxPoint x="818" y="353.22" as="targetPoint" />
          </mxGeometry>
        </mxCell>
        <mxCell id="4rP3tmyDoXCIiBvURkH--33" value="" style="endArrow=block;html=1;endFill=0;strokeWidth=2;fontStyle=0" parent="1" source="_WhWga9PzR_UyUv0E_fq-127" target="_WhWga9PzR_UyUv0E_fq-115" edge="1">
          <mxGeometry width="50" height="50" relative="1" as="geometry">
            <mxPoint x="180" y="315.22" as="sourcePoint" />
            <mxPoint x="126" y="281.22" as="targetPoint" />
          </mxGeometry>
        </mxCell>
        <mxCell id="4rP3tmyDoXCIiBvURkH--45" value="" style="endArrow=none;html=1;endFill=0;fontStyle=0" parent="1" source="_WhWga9PzR_UyUv0E_fq-114" target="_WhWga9PzR_UyUv0E_fq-111" edge="1">
          <mxGeometry width="50" height="50" relative="1" as="geometry">
            <mxPoint x="-78" y="411.72" as="sourcePoint" />
            <mxPoint x="-141" y="388.72" as="targetPoint" />
          </mxGeometry>
        </mxCell>
        <mxCell id="4rP3tmyDoXCIiBvURkH--46" value="1" style="edgeLabel;html=1;align=center;verticalAlign=middle;resizable=0;points=[];fontStyle=0" parent="4rP3tmyDoXCIiBvURkH--45" vertex="1" connectable="0">
          <mxGeometry x="0.6272" relative="1" as="geometry">
            <mxPoint as="offset" />
          </mxGeometry>
        </mxCell>
        <mxCell id="4rP3tmyDoXCIiBvURkH--47" value="1" style="edgeLabel;html=1;align=center;verticalAlign=middle;resizable=0;points=[];fontStyle=0" parent="4rP3tmyDoXCIiBvURkH--45" vertex="1" connectable="0">
          <mxGeometry x="-0.7057" relative="1" as="geometry">
            <mxPoint as="offset" />
          </mxGeometry>
        </mxCell>
        <mxCell id="4rP3tmyDoXCIiBvURkH--48" value="" style="endArrow=none;html=1;endFill=0;fontStyle=0" parent="1" source="_WhWga9PzR_UyUv0E_fq-123" target="_WhWga9PzR_UyUv0E_fq-95" edge="1">
          <mxGeometry width="50" height="50" relative="1" as="geometry">
            <mxPoint x="550" y="-196.9999999999999" as="sourcePoint" />
            <mxPoint x="60" y="-196.9999999999999" as="targetPoint" />
          </mxGeometry>
        </mxCell>
        <mxCell id="4rP3tmyDoXCIiBvURkH--49" value="0..*" style="edgeLabel;html=1;align=center;verticalAlign=middle;resizable=0;points=[];fontStyle=0" parent="4rP3tmyDoXCIiBvURkH--48" vertex="1" connectable="0">
          <mxGeometry x="0.6272" relative="1" as="geometry">
            <mxPoint as="offset" />
          </mxGeometry>
        </mxCell>
        <mxCell id="4rP3tmyDoXCIiBvURkH--50" value="1" style="edgeLabel;html=1;align=center;verticalAlign=middle;resizable=0;points=[];fontStyle=0" parent="4rP3tmyDoXCIiBvURkH--48" vertex="1" connectable="0">
          <mxGeometry x="-0.7057" relative="1" as="geometry">
            <mxPoint as="offset" />
          </mxGeometry>
        </mxCell>
        <mxCell id="4rP3tmyDoXCIiBvURkH--51" value="" style="endArrow=none;html=1;endFill=0;fontStyle=0" parent="1" source="_WhWga9PzR_UyUv0E_fq-123" target="_WhWga9PzR_UyUv0E_fq-128" edge="1">
          <mxGeometry width="50" height="50" relative="1" as="geometry">
            <mxPoint x="870" y="-201.78" as="sourcePoint" />
            <mxPoint x="380" y="-201.78" as="targetPoint" />
          </mxGeometry>
        </mxCell>
        <mxCell id="4rP3tmyDoXCIiBvURkH--52" value="0..*" style="edgeLabel;html=1;align=center;verticalAlign=middle;resizable=0;points=[];fontStyle=0" parent="4rP3tmyDoXCIiBvURkH--51" vertex="1" connectable="0">
          <mxGeometry x="0.6272" relative="1" as="geometry">
            <mxPoint as="offset" />
          </mxGeometry>
        </mxCell>
        <mxCell id="4rP3tmyDoXCIiBvURkH--53" value="1" style="edgeLabel;html=1;align=center;verticalAlign=middle;resizable=0;points=[];fontStyle=0" parent="4rP3tmyDoXCIiBvURkH--51" vertex="1" connectable="0">
          <mxGeometry x="-0.7057" relative="1" as="geometry">
            <mxPoint as="offset" />
          </mxGeometry>
        </mxCell>
        <mxCell id="4rP3tmyDoXCIiBvURkH--54" value="" style="endArrow=none;html=1;endFill=0;fontStyle=0" parent="1" source="_WhWga9PzR_UyUv0E_fq-113" target="_WhWga9PzR_UyUv0E_fq-101" edge="1">
          <mxGeometry width="50" height="50" relative="1" as="geometry">
            <mxPoint x="550" y="-161" as="sourcePoint" />
            <mxPoint x="60" y="-161" as="targetPoint" />
          </mxGeometry>
        </mxCell>
        <mxCell id="4rP3tmyDoXCIiBvURkH--55" value="0..*" style="edgeLabel;html=1;align=center;verticalAlign=middle;resizable=0;points=[];fontStyle=0" parent="4rP3tmyDoXCIiBvURkH--54" vertex="1" connectable="0">
          <mxGeometry x="0.6272" relative="1" as="geometry">
            <mxPoint as="offset" />
          </mxGeometry>
        </mxCell>
        <mxCell id="4rP3tmyDoXCIiBvURkH--56" value="1" style="edgeLabel;html=1;align=center;verticalAlign=middle;resizable=0;points=[];fontStyle=0" parent="4rP3tmyDoXCIiBvURkH--54" vertex="1" connectable="0">
          <mxGeometry x="-0.7057" relative="1" as="geometry">
            <mxPoint as="offset" />
          </mxGeometry>
        </mxCell>
        <mxCell id="4rP3tmyDoXCIiBvURkH--57" value="" style="endArrow=none;html=1;endFill=0;fontStyle=0" parent="1" source="_WhWga9PzR_UyUv0E_fq-113" target="_WhWga9PzR_UyUv0E_fq-116" edge="1">
          <mxGeometry width="50" height="50" relative="1" as="geometry">
            <mxPoint x="630" y="64" as="sourcePoint" />
            <mxPoint x="590" y="-82.78" as="targetPoint" />
          </mxGeometry>
        </mxCell>
        <mxCell id="4rP3tmyDoXCIiBvURkH--58" value="0..*" style="edgeLabel;html=1;align=center;verticalAlign=middle;resizable=0;points=[];fontStyle=0" parent="4rP3tmyDoXCIiBvURkH--57" vertex="1" connectable="0">
          <mxGeometry x="0.6272" relative="1" as="geometry">
            <mxPoint as="offset" />
          </mxGeometry>
        </mxCell>
        <mxCell id="4rP3tmyDoXCIiBvURkH--59" value="1" style="edgeLabel;html=1;align=center;verticalAlign=middle;resizable=0;points=[];fontStyle=0" parent="4rP3tmyDoXCIiBvURkH--57" vertex="1" connectable="0">
          <mxGeometry x="-0.7057" relative="1" as="geometry">
            <mxPoint as="offset" />
          </mxGeometry>
        </mxCell>
        <mxCell id="4rP3tmyDoXCIiBvURkH--60" value="" style="endArrow=none;html=1;endFill=0;fontStyle=0" parent="1" source="_WhWga9PzR_UyUv0E_fq-119" target="_WhWga9PzR_UyUv0E_fq-102" edge="1">
          <mxGeometry width="50" height="50" relative="1" as="geometry">
            <mxPoint x="550" y="124" as="sourcePoint" />
            <mxPoint x="60" y="125" as="targetPoint" />
          </mxGeometry>
        </mxCell>
        <mxCell id="4rP3tmyDoXCIiBvURkH--61" value="0..*" style="edgeLabel;html=1;align=center;verticalAlign=middle;resizable=0;points=[];fontStyle=0" parent="4rP3tmyDoXCIiBvURkH--60" vertex="1" connectable="0">
          <mxGeometry x="0.6272" relative="1" as="geometry">
            <mxPoint as="offset" />
          </mxGeometry>
        </mxCell>
        <mxCell id="4rP3tmyDoXCIiBvURkH--62" value="1" style="edgeLabel;html=1;align=center;verticalAlign=middle;resizable=0;points=[];fontStyle=0" parent="4rP3tmyDoXCIiBvURkH--60" vertex="1" connectable="0">
          <mxGeometry x="-0.7057" relative="1" as="geometry">
            <mxPoint as="offset" />
          </mxGeometry>
        </mxCell>
        <mxCell id="4rP3tmyDoXCIiBvURkH--63" value="" style="endArrow=none;html=1;endFill=0;fontStyle=0" parent="1" source="_WhWga9PzR_UyUv0E_fq-119" target="_WhWga9PzR_UyUv0E_fq-118" edge="1">
          <mxGeometry width="50" height="50" relative="1" as="geometry">
            <mxPoint x="870" y="508.22" as="sourcePoint" />
            <mxPoint x="370" y="508.22" as="targetPoint" />
          </mxGeometry>
        </mxCell>
        <mxCell id="4rP3tmyDoXCIiBvURkH--64" value="0..*" style="edgeLabel;html=1;align=center;verticalAlign=middle;resizable=0;points=[];fontStyle=0" parent="4rP3tmyDoXCIiBvURkH--63" vertex="1" connectable="0">
          <mxGeometry x="0.6272" relative="1" as="geometry">
            <mxPoint as="offset" />
          </mxGeometry>
        </mxCell>
        <mxCell id="4rP3tmyDoXCIiBvURkH--65" value="1" style="edgeLabel;html=1;align=center;verticalAlign=middle;resizable=0;points=[];fontStyle=0" parent="4rP3tmyDoXCIiBvURkH--63" vertex="1" connectable="0">
          <mxGeometry x="-0.7057" relative="1" as="geometry">
            <mxPoint as="offset" />
          </mxGeometry>
        </mxCell>
        <mxCell id="4rP3tmyDoXCIiBvURkH--72" value="" style="endArrow=none;html=1;endFill=0;fontStyle=0" parent="1" source="_WhWga9PzR_UyUv0E_fq-126" target="_WhWga9PzR_UyUv0E_fq-109" edge="1">
          <mxGeometry width="50" height="50" relative="1" as="geometry">
            <mxPoint x="540" y="890" as="sourcePoint" />
            <mxPoint x="40" y="890" as="targetPoint" />
          </mxGeometry>
        </mxCell>
        <mxCell id="4rP3tmyDoXCIiBvURkH--73" value="0..*" style="edgeLabel;html=1;align=center;verticalAlign=middle;resizable=0;points=[];fontStyle=0" parent="4rP3tmyDoXCIiBvURkH--72" vertex="1" connectable="0">
          <mxGeometry x="0.6272" relative="1" as="geometry">
            <mxPoint as="offset" />
          </mxGeometry>
        </mxCell>
        <mxCell id="4rP3tmyDoXCIiBvURkH--74" value="1" style="edgeLabel;html=1;align=center;verticalAlign=middle;resizable=0;points=[];fontStyle=0" parent="4rP3tmyDoXCIiBvURkH--72" vertex="1" connectable="0">
          <mxGeometry x="-0.7057" relative="1" as="geometry">
            <mxPoint x="-3" as="offset" />
          </mxGeometry>
        </mxCell>
        <mxCell id="4rP3tmyDoXCIiBvURkH--75" value="" style="endArrow=none;html=1;endFill=0;fontStyle=0" parent="1" source="_WhWga9PzR_UyUv0E_fq-126" target="_WhWga9PzR_UyUv0E_fq-127" edge="1">
          <mxGeometry width="50" height="50" relative="1" as="geometry">
            <mxPoint x="870" y="885.22" as="sourcePoint" />
            <mxPoint x="570" y="929" as="targetPoint" />
          </mxGeometry>
        </mxCell>
        <mxCell id="4rP3tmyDoXCIiBvURkH--76" value="0..*" style="edgeLabel;html=1;align=center;verticalAlign=middle;resizable=0;points=[];fontStyle=0" parent="4rP3tmyDoXCIiBvURkH--75" vertex="1" connectable="0">
          <mxGeometry x="0.6272" relative="1" as="geometry">
            <mxPoint as="offset" />
          </mxGeometry>
        </mxCell>
        <mxCell id="4rP3tmyDoXCIiBvURkH--77" value="1" style="edgeLabel;html=1;align=center;verticalAlign=middle;resizable=0;points=[];fontStyle=0" parent="4rP3tmyDoXCIiBvURkH--75" vertex="1" connectable="0">
          <mxGeometry x="-0.7057" relative="1" as="geometry">
            <mxPoint x="-3" as="offset" />
          </mxGeometry>
        </mxCell>
        <mxCell id="4rP3tmyDoXCIiBvURkH--82" value="" style="endArrow=none;html=1;endFill=0;fontStyle=0" parent="1" source="_WhWga9PzR_UyUv0E_fq-108" target="_WhWga9PzR_UyUv0E_fq-122" edge="1">
          <mxGeometry width="50" height="50" relative="1" as="geometry">
            <mxPoint x="1210" y="528.22" as="sourcePoint" />
            <mxPoint x="930" y="427.22" as="targetPoint" />
          </mxGeometry>
        </mxCell>
        <mxCell id="4rP3tmyDoXCIiBvURkH--83" value="0..*" style="edgeLabel;html=1;align=center;verticalAlign=middle;resizable=0;points=[];fontStyle=0" parent="4rP3tmyDoXCIiBvURkH--82" vertex="1" connectable="0">
          <mxGeometry x="0.6272" relative="1" as="geometry">
            <mxPoint as="offset" />
          </mxGeometry>
        </mxCell>
        <mxCell id="4rP3tmyDoXCIiBvURkH--84" value="1" style="edgeLabel;html=1;align=center;verticalAlign=middle;resizable=0;points=[];fontStyle=0" parent="4rP3tmyDoXCIiBvURkH--82" vertex="1" connectable="0">
          <mxGeometry x="-0.7057" relative="1" as="geometry">
            <mxPoint as="offset" />
          </mxGeometry>
        </mxCell>
        <mxCell id="iEaEduzbrhPbKf1LfvDi-17" value="v1.3.2" style="text;html=1;strokeColor=none;fillColor=none;align=center;verticalAlign=middle;whiteSpace=wrap;rounded=0;fontStyle=0" parent="1" vertex="1">
          <mxGeometry x="1080" y="710" width="60" height="30" as="geometry" />
        </mxCell>
        <mxCell id="_WhWga9PzR_UyUv0E_fq-20" value="" style="endArrow=block;html=1;endFill=0;strokeWidth=2;fontStyle=0" edge="1" parent="1" source="_WhWga9PzR_UyUv0E_fq-107" target="_WhWga9PzR_UyUv0E_fq-105">
          <mxGeometry width="50" height="50" relative="1" as="geometry">
            <mxPoint x="-591.71" y="1087.22" as="sourcePoint" />
            <mxPoint x="-641.71" y="1087.22" as="targetPoint" />
          </mxGeometry>
        </mxCell>
        <mxCell id="_WhWga9PzR_UyUv0E_fq-25" value="" style="endArrow=block;html=1;endFill=0;strokeWidth=2;fontStyle=0" edge="1" parent="1" source="_WhWga9PzR_UyUv0E_fq-110" target="_WhWga9PzR_UyUv0E_fq-105">
          <mxGeometry width="50" height="50" relative="1" as="geometry">
            <mxPoint x="-496.71" y="1397.22" as="sourcePoint" />
            <mxPoint x="-496.71" y="1361.22" as="targetPoint" />
          </mxGeometry>
        </mxCell>
        <mxCell id="_WhWga9PzR_UyUv0E_fq-33" value="" style="endArrow=block;html=1;endFill=0;strokeWidth=2;fontStyle=0" edge="1" parent="1" source="_WhWga9PzR_UyUv0E_fq-96" target="_WhWga9PzR_UyUv0E_fq-105">
          <mxGeometry width="50" height="50" relative="1" as="geometry">
            <mxPoint x="-302.71" y="1397.22" as="sourcePoint" />
            <mxPoint x="-381.71" y="1361.22" as="targetPoint" />
          </mxGeometry>
        </mxCell>
        <mxCell id="_WhWga9PzR_UyUv0E_fq-46" value="" style="endArrow=block;html=1;endFill=0;strokeWidth=2;fontStyle=0" edge="1" parent="1" source="_WhWga9PzR_UyUv0E_fq-97" target="_WhWga9PzR_UyUv0E_fq-105">
          <mxGeometry width="50" height="50" relative="1" as="geometry">
            <mxPoint x="-265.71" y="1423.22" as="sourcePoint" />
            <mxPoint x="-391.71" y="1361.22" as="targetPoint" />
          </mxGeometry>
        </mxCell>
        <mxCell id="_WhWga9PzR_UyUv0E_fq-49" value="" style="endArrow=none;html=1;endFill=0;fontStyle=0" edge="1" parent="1" source="_WhWga9PzR_UyUv0E_fq-114" target="_WhWga9PzR_UyUv0E_fq-105">
          <mxGeometry width="50" height="50" relative="1" as="geometry">
            <mxPoint x="541" y="274.22" as="sourcePoint" />
            <mxPoint x="447" y="367.22" as="targetPoint" />
          </mxGeometry>
        </mxCell>
        <mxCell id="_WhWga9PzR_UyUv0E_fq-50" value="0..*" style="edgeLabel;html=1;align=center;verticalAlign=middle;resizable=0;points=[];fontStyle=0" vertex="1" connectable="0" parent="_WhWga9PzR_UyUv0E_fq-49">
          <mxGeometry x="0.6272" relative="1" as="geometry">
            <mxPoint as="offset" />
          </mxGeometry>
        </mxCell>
        <mxCell id="_WhWga9PzR_UyUv0E_fq-51" value="1" style="edgeLabel;html=1;align=center;verticalAlign=middle;resizable=0;points=[];fontStyle=0" vertex="1" connectable="0" parent="_WhWga9PzR_UyUv0E_fq-49">
          <mxGeometry x="-0.7057" relative="1" as="geometry">
            <mxPoint as="offset" />
          </mxGeometry>
        </mxCell>
        <mxCell id="_WhWga9PzR_UyUv0E_fq-53" value="" style="endArrow=none;html=1;endFill=0;fontStyle=0" edge="1" parent="1" source="_WhWga9PzR_UyUv0E_fq-114" target="_WhWga9PzR_UyUv0E_fq-107">
          <mxGeometry width="50" height="50" relative="1" as="geometry">
            <mxPoint x="-297" y="484.22" as="sourcePoint" />
            <mxPoint x="-586" y="691.22" as="targetPoint" />
          </mxGeometry>
        </mxCell>
        <mxCell id="_WhWga9PzR_UyUv0E_fq-54" value="0..*" style="edgeLabel;html=1;align=center;verticalAlign=middle;resizable=0;points=[];fontStyle=0" vertex="1" connectable="0" parent="_WhWga9PzR_UyUv0E_fq-53">
          <mxGeometry x="0.6272" relative="1" as="geometry">
            <mxPoint as="offset" />
          </mxGeometry>
        </mxCell>
        <mxCell id="_WhWga9PzR_UyUv0E_fq-55" value="1" style="edgeLabel;html=1;align=center;verticalAlign=middle;resizable=0;points=[];fontStyle=0" vertex="1" connectable="0" parent="_WhWga9PzR_UyUv0E_fq-53">
          <mxGeometry x="-0.7057" relative="1" as="geometry">
            <mxPoint as="offset" />
          </mxGeometry>
        </mxCell>
        <mxCell id="_WhWga9PzR_UyUv0E_fq-56" value="" style="endArrow=none;html=1;endFill=0;fontStyle=0" edge="1" parent="1" source="_WhWga9PzR_UyUv0E_fq-114" target="_WhWga9PzR_UyUv0E_fq-110">
          <mxGeometry width="50" height="50" relative="1" as="geometry">
            <mxPoint x="-297" y="484.22" as="sourcePoint" />
            <mxPoint x="-586" y="691.22" as="targetPoint" />
          </mxGeometry>
        </mxCell>
        <mxCell id="_WhWga9PzR_UyUv0E_fq-57" value="0..*" style="edgeLabel;html=1;align=center;verticalAlign=middle;resizable=0;points=[];fontStyle=0" vertex="1" connectable="0" parent="_WhWga9PzR_UyUv0E_fq-56">
          <mxGeometry x="0.6272" relative="1" as="geometry">
            <mxPoint as="offset" />
          </mxGeometry>
        </mxCell>
        <mxCell id="_WhWga9PzR_UyUv0E_fq-58" value="1" style="edgeLabel;html=1;align=center;verticalAlign=middle;resizable=0;points=[];fontStyle=0" vertex="1" connectable="0" parent="_WhWga9PzR_UyUv0E_fq-56">
          <mxGeometry x="-0.7057" relative="1" as="geometry">
            <mxPoint as="offset" />
          </mxGeometry>
        </mxCell>
        <mxCell id="_WhWga9PzR_UyUv0E_fq-65" value="" style="endArrow=none;html=1;endFill=0;fontStyle=0" edge="1" parent="1" source="_WhWga9PzR_UyUv0E_fq-101" target="_WhWga9PzR_UyUv0E_fq-96">
          <mxGeometry width="50" height="50" relative="1" as="geometry">
            <mxPoint x="87" y="114.22" as="sourcePoint" />
            <mxPoint x="-903" y="278.22" as="targetPoint" />
          </mxGeometry>
        </mxCell>
        <mxCell id="_WhWga9PzR_UyUv0E_fq-66" value="0..*" style="edgeLabel;html=1;align=center;verticalAlign=middle;resizable=0;points=[];fontStyle=0" vertex="1" connectable="0" parent="_WhWga9PzR_UyUv0E_fq-65">
          <mxGeometry x="0.6272" relative="1" as="geometry">
            <mxPoint as="offset" />
          </mxGeometry>
        </mxCell>
        <mxCell id="_WhWga9PzR_UyUv0E_fq-67" value="1" style="edgeLabel;html=1;align=center;verticalAlign=middle;resizable=0;points=[];fontStyle=0" vertex="1" connectable="0" parent="_WhWga9PzR_UyUv0E_fq-65">
          <mxGeometry x="-0.7057" relative="1" as="geometry">
            <mxPoint as="offset" />
          </mxGeometry>
        </mxCell>
        <mxCell id="_WhWga9PzR_UyUv0E_fq-79" value="" style="endArrow=none;html=1;endFill=0;fontStyle=0" edge="1" parent="1" source="_WhWga9PzR_UyUv0E_fq-102" target="_WhWga9PzR_UyUv0E_fq-97">
          <mxGeometry width="50" height="50" relative="1" as="geometry">
            <mxPoint x="97" y="265.22" as="sourcePoint" />
            <mxPoint x="-743" y="509.22" as="targetPoint" />
          </mxGeometry>
        </mxCell>
        <mxCell id="_WhWga9PzR_UyUv0E_fq-80" value="0..*" style="edgeLabel;html=1;align=center;verticalAlign=middle;resizable=0;points=[];fontStyle=0" vertex="1" connectable="0" parent="_WhWga9PzR_UyUv0E_fq-79">
          <mxGeometry x="0.6272" relative="1" as="geometry">
            <mxPoint as="offset" />
          </mxGeometry>
        </mxCell>
        <mxCell id="_WhWga9PzR_UyUv0E_fq-81" value="1" style="edgeLabel;html=1;align=center;verticalAlign=middle;resizable=0;points=[];fontStyle=0" vertex="1" connectable="0" parent="_WhWga9PzR_UyUv0E_fq-79">
          <mxGeometry x="-0.7057" relative="1" as="geometry">
            <mxPoint as="offset" />
          </mxGeometry>
        </mxCell>
        <mxCell id="_WhWga9PzR_UyUv0E_fq-95" value="POD_8229" style="rounded=0;whiteSpace=wrap;html=1;fontStyle=0" vertex="1" parent="1">
          <mxGeometry x="120" y="520" width="120" height="40" as="geometry" />
        </mxCell>
        <mxCell id="_WhWga9PzR_UyUv0E_fq-96" value="&lt;span&gt;Packet_Binary4&lt;/span&gt;" style="rounded=0;whiteSpace=wrap;html=1;fontStyle=0" vertex="1" parent="1">
          <mxGeometry x="-244.71" width="120" height="40" as="geometry" />
        </mxCell>
        <mxCell id="_WhWga9PzR_UyUv0E_fq-97" value="&lt;span&gt;Packet_Binary5&lt;/span&gt;" style="rounded=0;whiteSpace=wrap;html=1;fontStyle=0" vertex="1" parent="1">
          <mxGeometry x="-244.71" y="200" width="120" height="40" as="geometry" />
        </mxCell>
        <mxCell id="_WhWga9PzR_UyUv0E_fq-101" value="&lt;span&gt;POD_8206HR&lt;/span&gt;" style="rounded=0;whiteSpace=wrap;html=1;fontStyle=0" vertex="1" parent="1">
          <mxGeometry x="120" width="120" height="40" as="geometry" />
        </mxCell>
        <mxCell id="_WhWga9PzR_UyUv0E_fq-102" value="&lt;span&gt;POD_8401HR&lt;/span&gt;" style="rounded=0;whiteSpace=wrap;html=1;fontStyle=0" vertex="1" parent="1">
          <mxGeometry x="120" y="200" width="120" height="40" as="geometry" />
        </mxCell>
        <mxCell id="_WhWga9PzR_UyUv0E_fq-105" value="Packet" style="rounded=0;whiteSpace=wrap;html=1;fontStyle=0" vertex="1" parent="1">
          <mxGeometry x="-440" y="360" width="120" height="40" as="geometry" />
        </mxCell>
        <mxCell id="_WhWga9PzR_UyUv0E_fq-107" value="&lt;span&gt;Packet_Standard&lt;/span&gt;" style="rounded=0;whiteSpace=wrap;html=1;fontStyle=0" vertex="1" parent="1">
          <mxGeometry x="-244.71" y="520" width="120" height="40" as="geometry" />
        </mxCell>
        <mxCell id="_WhWga9PzR_UyUv0E_fq-108" value="Setup_PodDevices" style="rounded=0;whiteSpace=wrap;html=1;fontStyle=0" vertex="1" parent="1">
          <mxGeometry x="999" y="360" width="120" height="40" as="geometry" />
        </mxCell>
        <mxCell id="_WhWga9PzR_UyUv0E_fq-109" value="&lt;span&gt;POD_8480SC&lt;/span&gt;" style="rounded=0;whiteSpace=wrap;html=1;fontStyle=0" vertex="1" parent="1">
          <mxGeometry x="120" y="680" width="120" height="40" as="geometry" />
        </mxCell>
        <mxCell id="_WhWga9PzR_UyUv0E_fq-110" value="Packet_Binary" style="rounded=0;whiteSpace=wrap;html=1;fontStyle=0" vertex="1" parent="1">
          <mxGeometry x="-244.71" y="420" width="120" height="40" as="geometry" />
        </mxCell>
        <mxCell id="_WhWga9PzR_UyUv0E_fq-111" value="COM_io" style="rounded=0;whiteSpace=wrap;html=1;fontStyle=0" vertex="1" parent="1">
          <mxGeometry x="-120" y="600" width="120" height="40" as="geometry" />
        </mxCell>
        <mxCell id="_WhWga9PzR_UyUv0E_fq-112" value="POD_Commands" style="rounded=0;whiteSpace=wrap;html=1;fontStyle=0" vertex="1" parent="1">
          <mxGeometry x="-244.71" y="300" width="120" height="34" as="geometry" />
        </mxCell>
        <mxCell id="_WhWga9PzR_UyUv0E_fq-113" value="Setup_8206HR" style="rounded=0;whiteSpace=wrap;html=1;fontStyle=0" vertex="1" parent="1">
          <mxGeometry x="599" width="120" height="40" as="geometry" />
        </mxCell>
        <mxCell id="_WhWga9PzR_UyUv0E_fq-114" value="POD_Basics" style="rounded=0;whiteSpace=wrap;html=1;fontStyle=0" vertex="1" parent="1">
          <mxGeometry x="-40" y="360" width="120" height="34" as="geometry" />
        </mxCell>
        <mxCell id="_WhWga9PzR_UyUv0E_fq-115" value="Params_Interface" style="rounded=0;whiteSpace=wrap;html=1;fontStyle=0" vertex="1" parent="1">
          <mxGeometry x="279" y="400" width="120" height="40" as="geometry" />
        </mxCell>
        <mxCell id="_WhWga9PzR_UyUv0E_fq-116" value="&lt;span&gt;Params_8206HR&lt;/span&gt;" style="rounded=0;whiteSpace=wrap;html=1;fontStyle=0" vertex="1" parent="1">
          <mxGeometry x="439" y="80" width="120" height="40" as="geometry" />
        </mxCell>
        <mxCell id="_WhWga9PzR_UyUv0E_fq-118" value="Params_8401HR" style="rounded=0;whiteSpace=wrap;html=1;fontStyle=0" vertex="1" parent="1">
          <mxGeometry x="439" y="280" width="120" height="40" as="geometry" />
        </mxCell>
        <mxCell id="_WhWga9PzR_UyUv0E_fq-119" value="Setup_8401HR" style="rounded=0;whiteSpace=wrap;html=1;fontStyle=0" vertex="1" parent="1">
          <mxGeometry x="599" y="200" width="120" height="40" as="geometry" />
        </mxCell>
        <mxCell id="_WhWga9PzR_UyUv0E_fq-121" value="UserInput" style="rounded=0;whiteSpace=wrap;html=1;fontStyle=0" vertex="1" parent="1">
          <mxGeometry x="599" y="310" width="120" height="40" as="geometry" />
        </mxCell>
        <mxCell id="_WhWga9PzR_UyUv0E_fq-122" value="Setup_Interface" style="rounded=0;whiteSpace=wrap;html=1;fontStyle=0" vertex="1" parent="1">
          <mxGeometry x="800" y="360" width="120" height="40" as="geometry" />
        </mxCell>
        <mxCell id="_WhWga9PzR_UyUv0E_fq-123" value="Setup_8229" style="rounded=0;whiteSpace=wrap;html=1;fontStyle=0" vertex="1" parent="1">
          <mxGeometry x="599" y="520" width="120" height="40" as="geometry" />
        </mxCell>
        <mxCell id="_WhWga9PzR_UyUv0E_fq-126" value="&lt;span&gt;Setup_8480SC&lt;/span&gt;" style="rounded=0;whiteSpace=wrap;html=1;fontStyle=0" vertex="1" parent="1">
          <mxGeometry x="599" y="680" width="120" height="40" as="geometry" />
        </mxCell>
        <mxCell id="_WhWga9PzR_UyUv0E_fq-127" value="Params_8480SC" style="rounded=0;whiteSpace=wrap;html=1;fontStyle=0" vertex="1" parent="1">
          <mxGeometry x="439" y="600" width="120" height="40" as="geometry" />
        </mxCell>
        <mxCell id="_WhWga9PzR_UyUv0E_fq-128" value="Params_8229" style="rounded=0;whiteSpace=wrap;html=1;fontStyle=0" vertex="1" parent="1">
          <mxGeometry x="439" y="440" width="120" height="40" as="geometry" />
        </mxCell>
        <mxCell id="_WhWga9PzR_UyUv0E_fq-133" value="" style="endArrow=none;html=1;endFill=0;fontStyle=0" edge="1" parent="1" source="_WhWga9PzR_UyUv0E_fq-105" target="_WhWga9PzR_UyUv0E_fq-112">
          <mxGeometry width="50" height="50" relative="1" as="geometry">
            <mxPoint x="82.28999999999999" y="248.22" as="sourcePoint" />
            <mxPoint x="-292.71" y="523.22" as="targetPoint" />
          </mxGeometry>
        </mxCell>
        <mxCell id="_WhWga9PzR_UyUv0E_fq-134" value="0..*" style="edgeLabel;html=1;align=center;verticalAlign=middle;resizable=0;points=[];fontStyle=0" vertex="1" connectable="0" parent="_WhWga9PzR_UyUv0E_fq-133">
          <mxGeometry x="0.6272" relative="1" as="geometry">
            <mxPoint as="offset" />
          </mxGeometry>
        </mxCell>
        <mxCell id="_WhWga9PzR_UyUv0E_fq-135" value="1" style="edgeLabel;html=1;align=center;verticalAlign=middle;resizable=0;points=[];fontStyle=0" vertex="1" connectable="0" parent="_WhWga9PzR_UyUv0E_fq-133">
          <mxGeometry x="-0.7057" relative="1" as="geometry">
            <mxPoint as="offset" />
          </mxGeometry>
        </mxCell>
        <mxCell id="_WhWga9PzR_UyUv0E_fq-144" value="" style="endArrow=none;html=1;endFill=0;fontStyle=0" edge="1" parent="1" source="_WhWga9PzR_UyUv0E_fq-122" target="_WhWga9PzR_UyUv0E_fq-115">
          <mxGeometry width="50" height="50" relative="1" as="geometry">
            <mxPoint x="898" y="357" as="sourcePoint" />
            <mxPoint x="-245" y="341" as="targetPoint" />
          </mxGeometry>
        </mxCell>
        <mxCell id="_WhWga9PzR_UyUv0E_fq-145" value="0..*" style="edgeLabel;html=1;align=center;verticalAlign=middle;resizable=0;points=[];fontStyle=0" vertex="1" connectable="0" parent="_WhWga9PzR_UyUv0E_fq-144">
          <mxGeometry x="0.6272" relative="1" as="geometry">
            <mxPoint as="offset" />
          </mxGeometry>
        </mxCell>
        <mxCell id="_WhWga9PzR_UyUv0E_fq-146" value="1" style="edgeLabel;html=1;align=center;verticalAlign=middle;resizable=0;points=[];fontStyle=0" vertex="1" connectable="0" parent="_WhWga9PzR_UyUv0E_fq-144">
          <mxGeometry x="-0.7057" relative="1" as="geometry">
            <mxPoint as="offset" />
          </mxGeometry>
        </mxCell>
        <mxCell id="_WhWga9PzR_UyUv0E_fq-147" value="" style="endArrow=none;html=1;endFill=0;fontStyle=0" edge="1" parent="1" source="_WhWga9PzR_UyUv0E_fq-108" target="_WhWga9PzR_UyUv0E_fq-113">
          <mxGeometry width="50" height="50" relative="1" as="geometry">
            <mxPoint x="1683" y="400" as="sourcePoint" />
            <mxPoint x="1358" y="400" as="targetPoint" />
          </mxGeometry>
        </mxCell>
        <mxCell id="_WhWga9PzR_UyUv0E_fq-148" value="0..*" style="edgeLabel;html=1;align=center;verticalAlign=middle;resizable=0;points=[];fontStyle=0" vertex="1" connectable="0" parent="_WhWga9PzR_UyUv0E_fq-147">
          <mxGeometry x="0.6272" relative="1" as="geometry">
            <mxPoint as="offset" />
          </mxGeometry>
        </mxCell>
        <mxCell id="_WhWga9PzR_UyUv0E_fq-149" value="1" style="edgeLabel;html=1;align=center;verticalAlign=middle;resizable=0;points=[];fontStyle=0" vertex="1" connectable="0" parent="_WhWga9PzR_UyUv0E_fq-147">
          <mxGeometry x="-0.7057" relative="1" as="geometry">
            <mxPoint as="offset" />
          </mxGeometry>
        </mxCell>
        <mxCell id="_WhWga9PzR_UyUv0E_fq-150" value="" style="endArrow=none;html=1;endFill=0;fontStyle=0" edge="1" parent="1" source="_WhWga9PzR_UyUv0E_fq-108" target="_WhWga9PzR_UyUv0E_fq-119">
          <mxGeometry width="50" height="50" relative="1" as="geometry">
            <mxPoint x="1707" y="383" as="sourcePoint" />
            <mxPoint x="1076" y="86" as="targetPoint" />
          </mxGeometry>
        </mxCell>
        <mxCell id="_WhWga9PzR_UyUv0E_fq-151" value="0..*" style="edgeLabel;html=1;align=center;verticalAlign=middle;resizable=0;points=[];fontStyle=0" vertex="1" connectable="0" parent="_WhWga9PzR_UyUv0E_fq-150">
          <mxGeometry x="0.6272" relative="1" as="geometry">
            <mxPoint as="offset" />
          </mxGeometry>
        </mxCell>
        <mxCell id="_WhWga9PzR_UyUv0E_fq-152" value="1" style="edgeLabel;html=1;align=center;verticalAlign=middle;resizable=0;points=[];fontStyle=0" vertex="1" connectable="0" parent="_WhWga9PzR_UyUv0E_fq-150">
          <mxGeometry x="-0.7057" relative="1" as="geometry">
            <mxPoint as="offset" />
          </mxGeometry>
        </mxCell>
        <mxCell id="_WhWga9PzR_UyUv0E_fq-153" value="" style="endArrow=none;html=1;endFill=0;fontStyle=0" edge="1" parent="1" source="_WhWga9PzR_UyUv0E_fq-108" target="_WhWga9PzR_UyUv0E_fq-123">
          <mxGeometry width="50" height="50" relative="1" as="geometry">
            <mxPoint x="1683" y="386" as="sourcePoint" />
            <mxPoint x="1106" y="252" as="targetPoint" />
          </mxGeometry>
        </mxCell>
        <mxCell id="_WhWga9PzR_UyUv0E_fq-154" value="0..*" style="edgeLabel;html=1;align=center;verticalAlign=middle;resizable=0;points=[];fontStyle=0" vertex="1" connectable="0" parent="_WhWga9PzR_UyUv0E_fq-153">
          <mxGeometry x="0.6272" relative="1" as="geometry">
            <mxPoint as="offset" />
          </mxGeometry>
        </mxCell>
        <mxCell id="_WhWga9PzR_UyUv0E_fq-155" value="1" style="edgeLabel;html=1;align=center;verticalAlign=middle;resizable=0;points=[];fontStyle=0" vertex="1" connectable="0" parent="_WhWga9PzR_UyUv0E_fq-153">
          <mxGeometry x="-0.7057" relative="1" as="geometry">
            <mxPoint as="offset" />
          </mxGeometry>
        </mxCell>
        <mxCell id="_WhWga9PzR_UyUv0E_fq-156" value="" style="endArrow=none;html=1;endFill=0;fontStyle=0" edge="1" parent="1" source="_WhWga9PzR_UyUv0E_fq-108" target="_WhWga9PzR_UyUv0E_fq-126">
          <mxGeometry width="50" height="50" relative="1" as="geometry">
            <mxPoint x="1685" y="417" as="sourcePoint" />
            <mxPoint x="1079" y="594" as="targetPoint" />
          </mxGeometry>
        </mxCell>
        <mxCell id="_WhWga9PzR_UyUv0E_fq-157" value="0..*" style="edgeLabel;html=1;align=center;verticalAlign=middle;resizable=0;points=[];fontStyle=0" vertex="1" connectable="0" parent="_WhWga9PzR_UyUv0E_fq-156">
          <mxGeometry x="0.6272" relative="1" as="geometry">
            <mxPoint as="offset" />
          </mxGeometry>
        </mxCell>
        <mxCell id="_WhWga9PzR_UyUv0E_fq-158" value="1" style="edgeLabel;html=1;align=center;verticalAlign=middle;resizable=0;points=[];fontStyle=0" vertex="1" connectable="0" parent="_WhWga9PzR_UyUv0E_fq-156">
          <mxGeometry x="-0.7057" relative="1" as="geometry">
            <mxPoint as="offset" />
          </mxGeometry>
        </mxCell>
        <mxCell id="_WhWga9PzR_UyUv0E_fq-161" value="" style="endArrow=none;html=1;endFill=0;fontStyle=0" edge="1" parent="1" source="_WhWga9PzR_UyUv0E_fq-122" target="_WhWga9PzR_UyUv0E_fq-114">
          <mxGeometry width="50" height="50" relative="1" as="geometry">
            <mxPoint x="898" y="366" as="sourcePoint" />
            <mxPoint x="390" y="438" as="targetPoint" />
          </mxGeometry>
        </mxCell>
        <mxCell id="_WhWga9PzR_UyUv0E_fq-162" value="0..*" style="edgeLabel;html=1;align=center;verticalAlign=middle;resizable=0;points=[];fontStyle=0" vertex="1" connectable="0" parent="_WhWga9PzR_UyUv0E_fq-161">
          <mxGeometry x="0.6272" relative="1" as="geometry">
            <mxPoint as="offset" />
          </mxGeometry>
        </mxCell>
        <mxCell id="_WhWga9PzR_UyUv0E_fq-163" value="1" style="edgeLabel;html=1;align=center;verticalAlign=middle;resizable=0;points=[];fontStyle=0" vertex="1" connectable="0" parent="_WhWga9PzR_UyUv0E_fq-161">
          <mxGeometry x="-0.7057" relative="1" as="geometry">
            <mxPoint as="offset" />
          </mxGeometry>
        </mxCell>
      </root>
    </mxGraphModel>
  </diagram>
</mxfile>
